<?xml version="1.0" standalone="no"?>
<!DOCTYPE svg PUBLIC "-//W3C//DTD SVG 20010904//EN"
 "http://www.w3.org/TR/2001/REC-SVG-20010904/DTD/svg10.dtd">
<svg version="1.0" xmlns="http://www.w3.org/2000/svg"
 width="70.000000pt" height="70.000000pt" viewBox="0 0 70.000000 70.000000"
 preserveAspectRatio="xMidYMid meet">
<metadata>
Created by potrace 1.14, written by Peter Selinger 2001-2017
</metadata>
<g transform="translate(0.000000,70.000000) scale(0.100000,-0.100000)"
fill="#000000" stroke="none">
<path d="M0 350 l0 -350 350 0 350 0 0 350 0 350 -350 0 -350 0 0 -350z m275
113 c4 -10 22 -60 41 -110 31 -86 32 -93 15 -93 -13 0 -21 9 -26 30 -6 28 -9
30 -55 30 -46 0 -49 -2 -55 -30 -4 -17 -13 -30 -21 -30 -20 0 -19 6 22 119 28
76 41 101 54 101 10 0 21 -8 25 -17z m217 0 c19 -17 23 -49 9 -72 -6 -10 -5
-18 4 -25 27 -22 28 -54 1 -81 -20 -20 -35 -25 -76 -25 l-50 0 0 110 0 110 47
0 c29 0 53 -6 65 -17z"/>
<path d="M227 385 l-16 -45 39 0 39 0 -16 45 c-8 25 -19 45 -23 45 -4 0 -15
-20 -23 -45z"/>
<path d="M410 420 c0 -35 3 -40 23 -40 45 0 65 50 28 70 -38 20 -51 13 -51
-30z"/>
<path d="M410 320 c0 -34 3 -40 21 -40 33 0 59 19 59 44 0 25 -17 36 -56 36
-21 0 -24 -4 -24 -40z"/>
</g>
</svg>
